HIERARCHY
ROOT joint_Root
{
	OFFSET 0.0 0.0 0.0
	CHANNELS 6 Xposition Yposition Zposition Zrotation Xrotation Yrotation 
	JOINT Hips
	{
		OFFSET 4.5925 91.4895 -427.239
		CHANNELS 6 Xposition Yposition Zposition Zrotation Xrotation Yrotation 
		JOINT Spine
		{
			OFFSET 15.7357 0.0 0.0
			CHANNELS 6 Xposition Yposition Zposition Zrotation Xrotation Yrotation 
			JOINT Chest
			{
				OFFSET 8.98455 -0.406207 0.0
				CHANNELS 6 Xposition Yposition Zposition Zrotation Xrotation Yrotation 
				JOINT Neck
				{
					OFFSET 16.3773 0.0 0.0
					CHANNELS 6 Xposition Yposition Zposition Zrotation Xrotation Yrotation 
					JOINT Head
					{
						OFFSET 6.45672 0.0 0.0
						CHANNELS 6 Xposition Yposition Zposition Zrotation Xrotation Yrotation 
						End Site
						{
							OFFSET 0.0 0.0 0.0
						}
					}
				}
				JOINT Shoulder_L
				{
					OFFSET 12.9942 -0.242716 4.98039
					CHANNELS 6 Xposition Yposition Zposition Zrotation Xrotation Yrotation 
					JOINT UpperArm_L
					{
						OFFSET 5.34809 0.0 0.0
						CHANNELS 6 Xposition Yposition Zposition Zrotation Xrotation Yrotation 
						JOINT LowerArm_L
						{
							OFFSET 24.3286 1.87007e-05 0.0
							CHANNELS 6 Xposition Yposition Zposition Zrotation Xrotation Yrotation 
							JOINT Hand_L
							{
								OFFSET 22.2916 0.0 0.0
								CHANNELS 6 Xposition Yposition Zposition Zrotation Xrotation Yrotation 
								End Site
								{
									OFFSET 0.0 0.0 0.0
								}
							}
						}
					}
				}
				JOINT Shoulder_R
				{
					OFFSET 12.9945 -0.242716 -4.98039
					CHANNELS 6 Xposition Yposition Zposition Zrotation Xrotation Yrotation 
					JOINT UpperArm_R
					{
						OFFSET -5.34813 0.0 0.0
						CHANNELS 6 Xposition Yposition Zposition Zrotation Xrotation Yrotation 
						JOINT LowerArm_R
						{
							OFFSET -24.3289 0.000322201 0.0
							CHANNELS 6 Xposition Yposition Zposition Zrotation Xrotation Yrotation 
							JOINT Hand_R
							{
								OFFSET -22.2915 -0.000108084 0.0
								CHANNELS 6 Xposition Yposition Zposition Zrotation Xrotation Yrotation 
								End Site
								{
									OFFSET 0.0 0.0 0.0
								}
							}
						}
					}
				}
			}
		}
		JOINT UpperLeg_L
		{
			OFFSET -2.19248 -6.46944 0.0
			CHANNELS 6 Xposition Yposition Zposition Zrotation Xrotation Yrotation 
			JOINT LowerLeg_L
			{
				OFFSET 39.0811 0.0 -1.23785e-05
				CHANNELS 6 Xposition Yposition Zposition Zrotation Xrotation Yrotation 
				JOINT Foot_L
				{
					OFFSET 40.9854 0.0 -1.26872e-05
					CHANNELS 6 Xposition Yposition Zposition Zrotation Xrotation Yrotation 
					JOINT Toes_L
					{
						OFFSET 11.7543 0.0 0.0
						CHANNELS 6 Xposition Yposition Zposition Zrotation Xrotation Yrotation 
						End Site
						{
							OFFSET 0.0 0.0 0.0
						}
					}
				}
			}
		}
		JOINT UpperLeg_R
		{
			OFFSET -2.19251 6.46944 0.0
			CHANNELS 6 Xposition Yposition Zposition Zrotation Xrotation Yrotation 
			JOINT LowerLeg_R
			{
				OFFSET -39.0811 -0.00228153 -0.0401928
				CHANNELS 6 Xposition Yposition Zposition Zrotation Xrotation Yrotation 
				JOINT Foot_R
				{
					OFFSET -40.9854 0.0 0.0
					CHANNELS 6 Xposition Yposition Zposition Zrotation Xrotation Yrotation 
					JOINT Toes_R
					{
						OFFSET -11.7543 0.0 0.0
						CHANNELS 6 Xposition Yposition Zposition Zrotation Xrotation Yrotation 
						End Site
						{
							OFFSET 0.0 0.0 0.0
						}
					}
				}
			}
		}
	}
}
MOTION
Frames:	7
Frame Time:	0.0333333
0.000000 0.000000 0.000000 0.000000 0.000000 -0.000000 5.854610 89.761300 3.335980 92.306000 -7.922510 10.369900 15.735700 0.000005 -0.000001 88.000000 84.511400 -89.717400 8.984550 -0.406207 -0.000000 3.202190 -0.314346 -3.422390 16.377300 -0.000001 -0.000001 27.073500 -3.941490 -5.601610 6.456720 -0.000001 -0.000000 15.332600 -4.056210 -12.973000 12.994200 -0.242716 4.980390 -87.596500 -5.932810 -67.898800 5.348090 -0.000007 -0.000001 -58.262100 -44.260900 -85.112500 24.328600 0.000019 0.000005 14.785700 5.817240 -68.993000 22.291600 -0.000001 0.000005 18.838900 5.400780 -2.963020 12.994500 -0.242716 -4.980390 91.259900 -4.613130 -74.705600 -5.348130 -0.000001 -0.000004 -46.712100 -41.318800 -69.777100 -24.328900 0.000322 -0.000009 2.656950 0.902186 -71.268900 -22.291500 -0.000108 -0.000004 24.853000 5.463420 -5.126170 -2.192480 -6.469440 -0.000000 179.071000 -18.898400 2.827530 39.081100 -0.000007 -0.000012 -0.123241 0.202590 31.313500 40.985400 -0.000006 -0.000013 3.407110 0.574015 -74.582500 11.754300 -0.000000 0.000003 -0.000196 -0.001817 -16.646100 -2.192510 6.469440 -0.000001 167.453000 12.353000 179.833000 -39.081100 -0.002282 -0.040193 0.018550 -0.021959 34.793900 -40.985400 0.000008 0.000006 1.550070 9.455140 -73.458900 -11.754300 -0.000006 -0.000006 -0.002478 -0.034548 -17.978000
0.000000 0.000000 0.000000 0.000000 0.000000 -0.000000 5.950650 89.742000 3.346260 92.384500 -7.786720 10.343700 15.735700 0.000005 -0.000001 87.819400 84.529500 -89.553900 8.984550 -0.406207 -0.000000 3.164300 -0.346255 -3.455610 16.377300 -0.000001 -0.000001 26.769900 -3.969760 -5.730980 6.456720 -0.000001 -0.000000 14.990700 -4.054660 -13.391100 12.994200 -0.242716 4.980390 -87.560500 -6.028770 -67.920300 5.348090 -0.000007 -0.000001 -58.341300 -44.114300 -85.221000 24.328600 0.000019 0.000005 14.828700 5.811740 -69.069200 22.291600 -0.000001 0.000005 18.736700 5.398930 -2.902890 12.994500 -0.242716 -4.980390 91.308500 -4.770790 -74.642400 -5.348130 -0.000001 -0.000004 -46.796900 -41.455700 -69.931000 -24.328900 0.000322 -0.000009 2.758180 0.940586 -71.194600 -22.291500 -0.000108 -0.000004 24.767900 5.463620 -5.133900 -2.192480 -6.469440 -0.000000 178.896000 -18.826600 2.769170 39.081100 -0.000007 -0.000012 -0.121105 0.198877 31.339400 40.985400 -0.000006 -0.000013 3.492950 0.606178 -74.607600 11.754300 -0.000000 0.000003 -0.000196 -0.001823 -16.646400 -2.192510 6.469440 -0.000001 167.318000 12.326900 179.761000 -39.081100 -0.002282 -0.040193 0.019412 -0.023109 34.900000 -40.985400 0.000008 0.000006 1.444750 9.339520 -73.455400 -11.754300 -0.000006 -0.000006 -0.002654 -0.036628 -18.062600
0.000000 0.000000 0.000000 0.000000 0.000000 -0.000000 6.033500 89.733900 3.354040 92.427000 -7.665270 10.289300 15.735700 0.000005 -0.000001 87.670200 84.553500 -89.421000 8.984550 -0.406207 -0.000000 3.114670 -0.371346 -3.487750 16.377300 -0.000001 -0.000001 26.443600 -3.986480 -5.881710 6.456720 -0.000001 -0.000000 14.715200 -4.031930 -13.681400 12.994200 -0.242716 4.980390 -87.519000 -6.121000 -67.885200 5.348090 -0.000007 -0.000001 -58.411700 -43.978500 -85.411700 24.328600 0.000019 0.000005 14.919900 5.838060 -69.105700 22.291600 -0.000001 0.000005 18.634400 5.399900 -2.934300 12.994500 -0.242716 -4.980390 91.344500 -4.889050 -74.603100 -5.348130 -0.000001 -0.000004 -46.874000 -41.578000 -70.067700 -24.328900 0.000322 -0.000009 2.775260 0.946809 -71.187300 -22.291500 -0.000108 -0.000004 24.825400 5.463290 -5.121470 -2.192480 -6.469440 -0.000000 178.762000 -18.774500 2.697840 39.081100 -0.000007 -0.000012 -0.121463 0.199490 31.336100 40.985400 -0.000006 -0.000013 3.565980 0.624132 -74.611700 11.754300 -0.000000 0.000003 -0.000193 -0.001796 -16.645400 -2.192510 6.469440 -0.000001 167.246000 12.304800 179.674000 -39.081100 -0.002282 -0.040193 0.019701 -0.023457 34.976200 -40.985400 0.000008 0.000006 1.393100 9.215870 -73.415400 -11.754300 -0.000006 -0.000006 -0.002545 -0.035339 -18.010200
0.000000 0.000000 0.000000 0.000000 0.000000 -0.000000 6.110440 89.728400 3.364380 92.490500 -7.551060 10.241000 15.735700 0.000005 -0.000001 87.545900 84.585200 -89.318100 8.984550 -0.406207 -0.000000 3.050100 -0.390363 -3.530230 16.377300 -0.000001 -0.000001 26.176100 -4.022750 -6.055910 6.456720 -0.000001 -0.000000 14.408300 -4.010720 -13.908000 12.994200 -0.242716 4.980390 -87.485900 -6.206190 -67.895200 5.348090 -0.000007 -0.000001 -58.351600 -43.933500 -85.494400 24.328600 0.000019 0.000005 14.983000 5.841330 -69.179300 22.291600 -0.000001 0.000005 18.613700 5.399360 -2.916770 12.994500 -0.242716 -4.980390 91.377900 -4.997080 -74.563000 -5.348130 -0.000001 -0.000004 -46.974200 -41.670200 -70.221200 -24.328900 0.000322 -0.000009 2.738350 0.932403 -71.221100 -22.291500 -0.000108 -0.000004 24.801800 5.466290 -5.232490 -2.192480 -6.469440 -0.000000 178.555000 -18.552800 2.633290 39.081100 -0.000007 -0.000012 -0.118728 0.195254 31.302800 40.985400 -0.000006 -0.000013 3.585630 0.483078 -74.595800 11.754300 -0.000000 0.000003 -0.000199 -0.001844 -16.647100 -2.192510 6.469440 -0.000001 167.150000 12.326500 179.601000 -39.081100 -0.002282 -0.040193 0.019516 -0.023146 35.031100 -40.985400 0.000008 0.000006 1.293130 9.100270 -73.380200 -11.754300 -0.000006 -0.000006 -0.002521 -0.035057 -17.998700
0.000000 0.000000 0.000000 0.000000 0.000000 -0.000000 6.165230 89.722600 3.375430 92.490800 -7.479810 10.144400 15.735700 0.000005 -0.000001 87.501600 84.638500 -89.270000 8.984550 -0.406207 -0.000000 2.943190 -0.392601 -3.523060 16.377300 -0.000001 -0.000001 25.849400 -4.035130 -6.214840 6.456720 -0.000001 -0.000000 14.160000 -4.034790 -14.240800 12.994200 -0.242716 4.980390 -87.455200 -6.270360 -67.856900 5.348090 -0.000007 -0.000001 -58.246900 -43.895400 -85.567900 24.328600 0.000019 0.000005 15.051400 5.869580 -69.178500 22.291600 -0.000001 0.000005 18.585100 5.401440 -2.984390 12.994500 -0.242716 -4.980390 91.411200 -5.108010 -74.533700 -5.348130 -0.000001 -0.000004 -47.169600 -41.720100 -70.457100 -24.328900 0.000322 -0.000009 2.873240 0.976426 -71.256100 -22.291500 -0.000108 -0.000004 24.790200 5.466590 -5.243600 -2.192480 -6.469440 -0.000000 178.490000 -18.555000 2.523510 39.081100 -0.000007 -0.000012 -0.118348 0.194503 31.319200 40.985400 -0.000006 -0.000013 3.646620 0.540226 -74.612100 11.754300 -0.000000 0.000003 -0.000190 -0.001777 -16.644700 -2.192510 6.469440 -0.000001 167.153000 12.279100 179.478000 -39.081100 -0.002282 -0.040193 0.020585 -0.024611 35.095600 -40.985400 0.000008 0.000006 1.294840 8.998190 -73.338000 -11.754300 -0.000006 -0.000006 -0.002579 -0.035740 -18.026500
0.000000 0.000000 0.000000 0.000000 0.000000 -0.000000 6.203000 89.712600 3.397650 92.509800 -7.417380 10.142000 15.735700 0.000005 -0.000001 87.495200 84.669300 -89.282000 8.984550 -0.406207 -0.000000 2.881650 -0.389397 -3.560100 16.377300 -0.000001 -0.000001 25.537800 -4.063040 -6.394590 6.456720 -0.000001 -0.000000 13.843800 -4.049420 -14.414700 12.994200 -0.242716 4.980390 -87.428300 -6.326610 -67.824800 5.348090 -0.000007 -0.000001 -58.216500 -43.884100 -85.792800 24.328600 0.000019 0.000005 15.330900 6.001560 -69.124100 22.291600 -0.000001 0.000005 18.427000 5.403300 -3.044890 12.994500 -0.242716 -4.980390 91.429400 -5.191850 -74.584100 -5.348130 -0.000001 -0.000004 -47.309400 -41.797800 -70.563000 -24.328900 0.000322 -0.000009 3.005950 1.016250 -71.347100 -22.291500 -0.000108 -0.000004 24.831400 5.464150 -5.153340 -2.192480 -6.469440 -0.000000 178.429000 -18.490200 2.518850 39.081100 -0.000007 -0.000012 -0.120069 0.197206 31.335500 40.985400 -0.000006 -0.000013 3.666030 0.511567 -74.635100 11.754300 -0.000000 0.000003 -0.000191 -0.001777 -16.644700 -2.192510 6.469440 -0.000001 167.102000 12.264600 179.480000 -39.081100 -0.002282 -0.040193 0.020259 -0.024117 35.130800 -40.985400 0.000008 0.000006 1.205900 8.950060 -73.328500 -11.754300 -0.000006 -0.000006 -0.002680 -0.036922 -18.074600
0.000000 0.000000 0.000000 0.000000 0.000000 -0.000000 6.227510 89.703800 3.427050 92.528200 -7.381320 10.120300 15.735700 0.000005 -0.000001 87.590500 84.711400 -89.403900 8.984550 -0.406207 -0.000000 2.798750 -0.365723 -3.614230 16.377300 -0.000001 -0.000001 25.195100 -4.057150 -6.561560 6.456720 -0.000001 -0.000000 13.622600 -4.056310 -14.534300 12.994200 -0.242716 4.980390 -87.391400 -6.387350 -67.729500 5.348090 -0.000007 -0.000001 -58.242000 -43.796800 -86.071600 24.328600 0.000019 0.000005 15.652300 6.146170 -69.087300 22.291600 -0.000001 0.000005 18.461200 5.402190 -3.008940 12.994500 -0.242716 -4.980390 91.436100 -5.221860 -74.599400 -5.348130 -0.000001 -0.000004 -47.452300 -41.817800 -70.722800 -24.328900 0.000322 -0.000009 3.102840 1.049190 -71.345000 -22.291500 -0.000108 -0.000004 24.904400 5.465530 -5.204430 -2.192480 -6.469440 -0.000000 178.351000 -18.395600 2.505300 39.081100 -0.000007 -0.000012 -0.117166 0.192428 31.336900 40.985400 -0.000006 -0.000013 3.665430 0.434421 -74.657200 11.754300 -0.000000 0.000003 -0.000188 -0.001761 -16.644100 -2.192510 6.469440 -0.000001 167.068000 12.264400 179.460000 -39.081100 -0.002282 -0.040193 0.020733 -0.024754 35.169900 -40.985400 0.000008 0.000006 1.203670 8.916540 -73.347800 -11.754300 -0.000006 -0.000006 -0.002817 -0.038518 -18.139500
